<svg width="42" height="42" viewBox="0 0 26 26" fill="none" xmlns="http://www.w3.org/2000/svg">
                        <g clip-path="url(#clip0)">
                        <path d="M25.6193 24.6834H25.4158C25.2606 24.2365 24.9535 23.2433 24.9535 22.3812C24.9535 21.5191 25.2606 20.5258 25.4158 20.0789H25.6193C25.8296 20.0789 26 19.9084 26 19.6982C26 19.488 25.8296 19.3175 25.6193 19.3175H22.7464C22.9567 19.3175 23.1272 19.147 23.1272 18.9368C23.1272 18.7265 22.9567 18.5561 22.7464 18.5561H22.7052C22.3296 18.1565 22.012 17.7089 21.7613 17.2223C21.665 17.0354 21.4354 16.962 21.2485 17.0583C21.0616 17.1546 20.9881 17.3842 21.0845 17.5711C21.2632 17.9179 21.4725 18.2468 21.7086 18.5561H4.07382C3.03266 18.5561 2.18563 17.709 2.18563 16.6679V12.4094C2.18563 11.3682 3.03266 10.5212 4.07382 10.5212H15.2263V11.8962C15.2263 12.1222 15.363 12.3197 15.5745 12.3994C15.7221 12.463 15.9921 12.4397 16.168 12.2511L16.5835 11.7783L16.999 12.2511C17.1482 12.4209 17.3814 12.4791 17.5926 12.3994C17.8041 12.3197 17.9408 12.1221 17.9408 11.8962V10.5212H21.7069C20.8281 11.6705 20.3518 13.0689 20.3518 14.5386C20.3518 14.9285 20.3859 15.3194 20.4533 15.7004C20.4859 15.885 20.6465 16.0149 20.8277 16.0149C20.8497 16.0149 20.8721 16.0129 20.8945 16.009C21.1015 15.9724 21.2397 15.7748 21.2031 15.5678C21.1434 15.2305 21.1132 14.8842 21.1132 14.5386C21.1132 13.0339 21.677 11.6135 22.7041 10.5212H22.7464C22.9567 10.5212 23.1272 10.3507 23.1272 10.1405C23.1272 9.93022 22.9567 9.75979 22.7464 9.75979H25.4888C25.6991 9.75979 25.8695 9.58932 25.8695 9.37909C25.8695 9.1688 25.6991 8.99838 25.4888 8.99838H25.3296C25.1873 8.58492 24.9205 7.70828 24.9205 6.94621C24.9205 6.18419 25.1873 5.3075 25.3296 4.89409H25.4888C25.6991 4.89409 25.8695 4.72361 25.8695 4.51338C25.8695 4.30315 25.6991 4.13267 25.4888 4.13267H25.0566C25.0561 4.13267 25.0556 4.13267 25.0551 4.13267H22.6954C22.8504 4.13267 22.9899 4.03878 23.0482 3.89517C23.1065 3.75161 23.072 3.58703 22.9608 3.47902C22.6513 3.17799 22.4808 2.77483 22.4808 2.34395C22.4808 1.91308 22.6513 1.50992 22.9608 1.20889C23.1817 1.00622 23.0603 0.548076 22.6954 0.555236H5.51886C5.30857 0.555236 5.13815 0.725709 5.13815 0.935943C5.13815 1.14618 5.30862 1.31665 5.51886 1.31665H21.9552C21.8009 1.63236 21.7193 1.98143 21.7193 2.3439C21.7193 2.70638 21.8007 3.0555 21.955 3.37116H1.80659C1.24013 3.37116 0.77934 2.91032 0.77934 2.3439C0.77934 1.77749 1.24018 1.31665 1.80659 1.31665H3.58353C3.79382 1.31665 3.96424 1.14618 3.96424 0.935943C3.96424 0.725709 3.79377 0.555236 3.58353 0.555236H1.80659C0.82027 0.555236 0.017875 1.35763 0.017875 2.34395C0.017875 3.33028 0.82027 4.13267 1.80659 4.13267H5.35829C3.80687 4.13267 2.5447 5.39484 2.5447 6.94626C2.5447 8.49768 3.80687 9.75984 5.35829 9.75984H4.07382C2.6128 9.75984 1.42421 10.9484 1.42421 12.4095V16.6678C1.42421 18.1288 2.6128 19.3174 4.07382 19.3174H3.06373C1.37439 19.3174 0 20.6918 0 22.3812C0 24.0705 1.37439 25.4449 3.06373 25.4449H19.082C19.2923 25.4449 19.4627 25.2744 19.4627 25.0642C19.4627 24.854 19.2923 24.6835 19.082 24.6835H3.06373C1.79425 24.6835 0.761465 23.6507 0.761465 22.3812C0.761465 21.1117 1.79425 20.079 3.06373 20.079H24.6124C24.4344 20.6335 24.192 21.5427 24.192 22.3812C24.192 23.2197 24.4345 24.129 24.6124 24.6835H21.0332C20.8229 24.6835 20.6525 24.854 20.6525 25.0642C20.6525 25.2744 20.8229 25.4449 21.0332 25.4449H25.6193C25.8296 25.4449 26 25.2744 26 25.0642C26 24.854 25.8296 24.6834 25.6193 24.6834V24.6834ZM16.9453 11.0365C16.8539 10.9325 16.722 10.8729 16.5835 10.8729C16.4451 10.8729 16.3132 10.9325 16.2217 11.0366L15.9878 11.3027V6.69555H17.1793V11.3027L16.9453 11.0365ZM3.30616 6.94621C3.30616 5.81465 4.22678 4.89409 5.35829 4.89409H24.5272C24.3668 5.40276 24.159 6.20465 24.159 6.94621C24.159 7.68782 24.3668 8.4897 24.5272 8.99838H17.9407V6.6956H21.3909C21.6012 6.6956 21.7716 6.52513 21.7716 6.3149C21.7716 6.10466 21.6012 5.93419 21.3909 5.93419H15.0955C14.8853 5.93419 14.7148 6.10466 14.7148 6.3149C14.7148 6.52513 14.8853 6.6956 15.0955 6.6956H15.2263V8.99838H5.35834C4.22678 8.99838 3.30616 8.07777 3.30616 6.94621V6.94621Z" fill="#55967E"/>
                        <path d="M11.2003 14.7401H19.5687C19.779 14.7401 19.9495 14.5696 19.9495 14.3594C19.9495 14.1491 19.779 13.9787 19.5687 13.9787H11.2003C10.9901 13.9787 10.8196 14.1492 10.8196 14.3594C10.8196 14.5696 10.9901 14.7401 11.2003 14.7401V14.7401Z" fill="#55967E"/>
                        <path d="M15.0956 22.5086C14.8853 22.5086 14.7148 22.679 14.7148 22.8893C14.7148 23.0995 14.8853 23.27 15.0956 23.27H16.806C17.0163 23.27 17.1867 23.0995 17.1867 22.8893C17.1867 22.679 17.0163 22.5086 16.806 22.5086H15.0956Z" fill="#55967E"/>
                        <path d="M6.95969 22.5086C6.7494 22.5086 6.57898 22.679 6.57898 22.8893C6.57898 23.0995 6.74945 23.27 6.95969 23.27H13.4284C13.6386 23.27 13.8091 23.0995 13.8091 22.8893C13.8091 22.679 13.6386 22.5086 13.4284 22.5086H6.95969Z" fill="#55967E"/>
                        <path d="M12.5295 6.69557H13.5079C13.7182 6.69557 13.8886 6.5251 13.8886 6.31486C13.8886 6.10462 13.7182 5.93415 13.5079 5.93415H12.5295C12.3192 5.93415 12.1488 6.10462 12.1488 6.31486C12.1488 6.5251 12.3192 6.69557 12.5295 6.69557Z" fill="#55967E"/>
                        <path d="M5.80221 17.1288C5.99889 17.2286 6.23157 17.2097 6.40956 17.0796L7.61079 16.2011L8.81202 17.0796C9.10528 17.3317 9.74284 17.1189 9.73812 16.6095V13.1976H10.8576C11.0679 13.1976 11.2383 13.0271 11.2383 12.8169C11.2383 12.6067 11.0678 12.4362 10.8576 12.4362H4.56229C4.352 12.4362 4.18158 12.6067 4.18158 12.8169C4.18158 13.0271 4.35205 13.1976 4.56229 13.1976H5.48346V16.6095C5.48346 16.8299 5.60564 17.0289 5.80221 17.1288V17.1288ZM8.9768 16.2566L7.8356 15.422C7.76867 15.3731 7.68975 15.3486 7.61084 15.3486C7.53192 15.3486 7.45301 15.3731 7.38608 15.422L6.24487 16.2566V13.1976H8.97675V16.2566H8.9768Z" fill="#55967E"/>
                        </g>
                        <defs>
                        <clipPath id="clip0">
                        <path d="M0 0H26V26H0V0Z" fill="white"/>
                        </clipPath>
                        </defs>
                        </svg>