<svg width="42" height="42" viewBox="0 0 24 24" fill="none" xmlns="http://www.w3.org/2000/svg">
<path d="M11.8466 13.56C11.9406 13.4325 11.9568 13.2636 11.8885 13.1207C11.8202 12.9778 11.6787 12.8842 11.5204 12.8773C11.0869 12.8556 10.7402 12.509 10.7186 12.0754C10.714 11.9681 10.6694 11.8664 10.5934 11.7904M11.8466 13.56L11.6883 13.2163L11.6374 13.1058L11.5079 13.1655L11.5059 13.1664L11.1714 13.3204M11.8466 13.56L11.5018 13.3054L11.4991 13.3035L11.4443 13.263C11.4286 13.2842 11.4259 13.3124 11.4373 13.3362C11.4482 13.3591 11.4704 13.3743 11.4954 13.3766C11.4965 13.3767 11.4976 13.3767 11.4987 13.3768L11.4954 13.3766L11.4954 13.3766C11.3832 13.371 11.2747 13.3517 11.1714 13.3204M11.8466 13.56L10.8862 14.0022L10.4462 11.9376M11.1714 13.3204C10.7421 13.1901 10.4042 12.8517 10.2747 12.422M11.1714 13.3204L10.6202 13.5743M10.2747 12.422L10.4287 12.0899L10.4297 12.0876L10.4899 11.9579L10.4497 11.9392L10.5934 11.7904M10.2747 12.422L10.019 12.9735M10.2747 12.422C10.2438 12.3195 10.2247 12.2117 10.2192 12.1004L10.219 12.0965L10.219 12.0965C10.2191 12.0978 10.2191 12.0991 10.2193 12.1004C10.2209 12.1168 10.2281 12.1322 10.2399 12.144L10.2844 12.0994L10.2828 12.0972L10.2805 12.0939L10.0363 11.7475M10.5934 11.7904L10.4462 11.9376M10.5934 11.7904C10.442 11.6443 10.2082 11.6263 10.0363 11.7475M10.4462 11.9376L10.0363 11.7475M10.4462 11.9376L10.019 12.9735M10.0363 11.7475L9.38055 13.1618M9.38055 13.1618C9.81761 13.388 10.1763 13.7401 10.4106 14.1721L10.2201 13.7585L10.6202 13.5743M9.38055 13.1618L9.83417 13.3721L10.019 12.9735M9.38055 13.1618L9.61034 12.7178C9.75397 12.7921 9.89056 12.8777 10.019 12.9735M10.6202 13.5743C10.4498 13.3461 10.2473 13.1437 10.019 12.9735M10.6202 13.5743L10.019 12.9735M10.2462 12.1502L10.2889 12.1059L10.3244 12.1562C10.3003 12.1732 10.2674 12.1707 10.2462 12.1502Z" stroke="#55967E"/>
<path d="M12.5003 7.35712L9.02659 10.8308L9.02581 10.8316C8.94912 10.9087 8.8865 10.9985 8.84079 11.0971L8.84072 11.0973L7.2545 14.5224C6.99252 15.0434 7.09631 15.6743 7.51203 16.0838C7.76437 16.3386 8.1076 16.4829 8.46633 16.4848L8.4698 16.4848C8.67441 16.4845 8.87615 16.4371 9.05944 16.3463L12.4963 14.7545C12.4966 14.7543 12.4969 14.7542 12.4972 14.754C12.5965 14.7083 12.6869 14.6453 12.7641 14.568L12.5003 7.35712ZM12.5003 7.35712H2.14318C1.23619 7.35835 0.501237 8.09331 0.5 9.00029V18.4282C0.501237 19.3353 1.23634 20.0703 2.14346 20.0714L12.5003 7.35712ZM12.7645 14.5675L19.9754 7.35712H21.8568C22.7639 7.35835 23.4989 8.09346 23.5 9.00057V18.4279C23.4989 19.3352 22.7638 20.0703 21.8565 20.0714L15.4286 20.0714L15.4263 20.0714C14.8663 20.074 14.3395 20.3374 14.0014 20.7838L14.0005 20.785L12.0013 23.4408L11.8288 23.2115L11.2603 22.456C10.8193 21.8697 10.3027 21.1828 9.99982 20.7795L9.99905 20.7784C9.66088 20.3305 9.13117 20.0685 8.57 20.0714H8.57143L12.7645 14.5675ZM1.71429 9.49997H2.14286C2.52889 9.49997 2.85991 9.2644 3 8.92917C3.14009 9.2644 3.47111 9.49997 3.85714 9.49997H9.85714C10.37 9.49997 10.7857 9.08424 10.7857 8.5714C10.7857 8.05857 10.37 7.64283 9.85714 7.64283H3.85714C3.47111 7.64283 3.14009 7.8784 3 8.21363C2.85991 7.8784 2.52889 7.64283 2.14286 7.64283H1.71429C1.20145 7.64283 0.785714 8.05857 0.785714 8.5714C0.785714 9.08424 1.20145 9.49997 1.71429 9.49997ZM15.4286 19.7857H19.7143C20.1003 19.7857 20.4313 19.5501 20.5714 19.2149C20.7115 19.5501 21.0425 19.7857 21.4286 19.7857H22.2857C22.7985 19.7857 23.2143 19.37 23.2143 18.8571C23.2143 18.3443 22.7985 17.9285 22.2857 17.9285H21.4286C21.0425 17.9285 20.7115 18.1641 20.5714 18.4994C20.4313 18.1641 20.1003 17.9285 19.7143 17.9285H15.4286C14.9157 17.9285 14.5 18.3443 14.5 18.8571C14.5 19.37 14.9157 19.7857 15.4286 19.7857Z" stroke="#55967E"/>
<mask id="path-3-inside-1" fill="white">
<path d="M8.47626 15.1123L9.64925 14.5714C9.50298 14.306 9.28397 14.0879 9.01797 13.9427L8.47626 15.1123Z"/>
</mask>
<path d="M8.47626 15.1123L7.56886 14.692L6.42639 17.1586L8.89498 16.0204L8.47626 15.1123ZM9.64925 14.5714L10.068 15.4795L11.0436 15.0297L10.5251 14.0887L9.64925 14.5714ZM9.01797 13.9427L9.49706 13.0649L8.55949 12.5532L8.11057 13.5224L9.01797 13.9427ZM8.89498 16.0204L10.068 15.4795L9.23053 13.6633L8.05753 14.2041L8.89498 16.0204ZM10.5251 14.0887C10.2869 13.6565 9.93022 13.3013 9.49706 13.0649L8.53888 14.8205C8.63772 14.8744 8.7191 14.9554 8.77345 15.0541L10.5251 14.0887ZM8.11057 13.5224L7.56886 14.692L9.38365 15.5325L9.92536 14.363L8.11057 13.5224Z" fill="#55967E" mask="url(#path-3-inside-1)"/>
<path d="M21.2616 1.86831C21.077 1.78501 20.8704 1.76491 20.6749 1.80888L21.2027 1.28122C21.1586 1.47649 21.1782 1.68326 21.2616 1.86831ZM22.2833 0.574686C22.1666 0.552293 22.0477 0.552758 21.933 0.57481C22.0424 0.517422 22.1739 0.517381 22.2833 0.574686ZM23.0369 1.48668C23.0369 1.4217 23.0302 1.35783 23.0172 1.29588C23.0889 1.41063 23.0892 1.55727 23.0182 1.67234C23.0305 1.612 23.0369 1.54986 23.0369 1.48668ZM21.726 2.3329C21.9081 2.41513 22.1137 2.43718 22.3115 2.3928L21.7853 2.91912C21.8292 2.7237 21.8091 2.51732 21.726 2.3329Z" stroke="#55967E"/>
<path d="M18.7747 5.14267H18.7749C18.9023 5.14264 19.0254 5.1166 19.1381 5.06866C19.0636 5.24429 19.0455 5.43831 19.0842 5.62295L18.9373 5.76982L18.9373 5.76983L18.9322 5.77489L18.9322 5.77497L18.7709 5.93613C18.8041 5.79086 18.8025 5.63732 18.7626 5.48843C18.7253 5.34943 18.657 5.22364 18.5656 5.11876C18.6336 5.13451 18.7038 5.14265 18.7747 5.14267ZM20.1841 4.523C19.9993 4.4843 19.8052 4.50242 19.6294 4.57709C19.6305 4.57454 19.6316 4.57198 19.6327 4.56942L19.1707 4.37809L19.6327 4.56942C19.708 4.38741 19.722 4.19098 19.6799 4.00701L20.19 4.5171L20.1841 4.523ZM18.071 4.82344C17.9338 4.7923 17.7935 4.79319 17.6602 4.82345L17.8655 4.61808L18.071 4.82344Z" stroke="#55967E"/>
</svg>
