<svg  width="42" height="42" viewBox="0 0 24 24" fill="none" xmlns="http://www.w3.org/2000/svg">
<path d="M17.75 10H13.25C13.1117 10 13 10.112 13 10.25C13 10.388 13.1117 10.5 13.25 10.5H17.75C17.8882 10.5 18 10.388 18 10.25C18 10.112 17.8882 10 17.75 10Z" fill="#55967E"/>
<path d="M17.75 11H13.25C13.1117 11 13 11.112 13 11.25C13 11.388 13.1117 11.5 13.25 11.5H17.75C17.8882 11.5 18 11.388 18 11.25C18 11.112 17.8882 11 17.75 11Z" fill="#55967E"/>
<path d="M17.75 12H13.25C13.1117 12 13 12.112 13 12.25C13 12.388 13.1117 12.5 13.25 12.5H17.75C17.8882 12.5 18 12.388 18 12.25C18 12.112 17.8882 12 17.75 12Z" fill="#55967E"/>
<path d="M17.75 13H13.25C13.1117 13 13 13.112 13 13.25C13 13.388 13.1117 13.5 13.25 13.5H17.75C17.8882 13.5 18 13.388 18 13.25C18 13.112 17.8882 13 17.75 13Z" fill="#55967E"/>
<path d="M17.75 14H13.25C13.1117 14 13 14.112 13 14.25C13 14.388 13.1117 14.5 13.25 14.5H17.75C17.8882 14.5 18 14.388 18 14.25C18 14.112 17.8882 14 17.75 14Z" fill="#55967E"/>
<path d="M17.75 15H13.25C13.1117 15 13 15.112 13 15.25C13 15.388 13.1117 15.5 13.25 15.5H17.75C17.8882 15.5 18 15.388 18 15.25C18 15.112 17.8882 15 17.75 15Z" fill="#55967E"/>
<path d="M17.75 16H13.25C13.1117 16 13 16.112 13 16.25C13 16.388 13.1117 16.5 13.25 16.5H17.75C17.8882 16.5 18 16.388 18 16.25C18 16.112 17.8882 16 17.75 16Z" fill="#55967E"/>
<path d="M17.75 17H13.25C13.1117 17 13 17.112 13 17.25C13 17.388 13.1117 17.5 13.25 17.5H17.75C17.8882 17.5 18 17.388 18 17.25C18 17.112 17.8882 17 17.75 17Z" fill="#55967E"/>
<path d="M17.75 18H13.25C13.1117 18 13 18.112 13 18.25C13 18.388 13.1117 18.5 13.25 18.5H17.75C17.8882 18.5 18 18.388 18 18.25C18 18.112 17.8882 18 17.75 18Z" fill="#55967E"/>
<path d="M14.75 19H13.25C13.1117 19 13 19.112 13 19.25C13 19.388 13.1117 19.5 13.25 19.5H14.75C14.8882 19.5 15 19.388 15 19.25C15 19.112 14.8882 19 14.75 19Z" fill="#55967E"/>
<path d="M6.25 10.5H10.75C10.8882 10.5 11 10.388 11 10.25C11 10.112 10.8882 10 10.75 10H6.25C6.11175 10 6 10.112 6 10.25C6 10.388 6.11175 10.5 6.25 10.5Z" fill="#55967E"/>
<path d="M6.25 11.5H10.75C10.8882 11.5 11 11.388 11 11.25C11 11.112 10.8882 11 10.75 11H6.25C6.11175 11 6 11.112 6 11.25C6 11.388 6.11175 11.5 6.25 11.5Z" fill="#55967E"/>
<path d="M6.25 12.5H10.75C10.8882 12.5 11 12.388 11 12.25C11 12.112 10.8882 12 10.75 12H6.25C6.11175 12 6 12.112 6 12.25C6 12.388 6.11175 12.5 6.25 12.5Z" fill="#55967E"/>
<path d="M6.25 13.5H10.75C10.8882 13.5 11 13.388 11 13.25C11 13.112 10.8882 13 10.75 13H6.25C6.11175 13 6 13.112 6 13.25C6 13.388 6.11175 13.5 6.25 13.5Z" fill="#55967E"/>
<path d="M6.25 14.5H10.75C10.8882 14.5 11 14.388 11 14.25C11 14.112 10.8882 14 10.75 14H6.25C6.11175 14 6 14.112 6 14.25C6 14.388 6.11175 14.5 6.25 14.5Z" fill="#55967E"/>
<path d="M6.25 15.5H10.75C10.8882 15.5 11 15.388 11 15.25C11 15.112 10.8882 15 10.75 15H6.25C6.11175 15 6 15.112 6 15.25C6 15.388 6.11175 15.5 6.25 15.5Z" fill="#55967E"/>
<path d="M6.25 16.5H10.75C10.8882 16.5 11 16.388 11 16.25C11 16.112 10.8882 16 10.75 16H6.25C6.11175 16 6 16.112 6 16.25C6 16.388 6.11175 16.5 6.25 16.5Z" fill="#55967E"/>
<path d="M6.25 17.5H10.75C10.8882 17.5 11 17.388 11 17.25C11 17.112 10.8882 17 10.75 17H6.25C6.11175 17 6 17.112 6 17.25C6 17.388 6.11175 17.5 6.25 17.5Z" fill="#55967E"/>
<path d="M6.25 18.5H10.75C10.8882 18.5 11 18.388 11 18.25C11 18.112 10.8882 18 10.75 18H6.25C6.11175 18 6 18.112 6 18.25C6 18.388 6.11175 18.5 6.25 18.5Z" fill="#55967E"/>
<path d="M6.25 19.5H10.75C10.8882 19.5 11 19.388 11 19.25C11 19.112 10.8882 19 10.75 19H6.25C6.11175 19 6 19.112 6 19.25C6 19.388 6.11175 19.5 6.25 19.5Z" fill="#55967E"/>
<path d="M23.4138 10.311L21.1063 8.311C21.0018 8.221 20.8443 8.23175 20.7535 8.33625C20.6633 8.4405 20.6745 8.5985 20.7788 8.689L22.5798 10.25H21.75C21.6118 10.25 21.5 10.362 21.5 10.5V23H2.50003V10.5C2.50003 10.362 2.38827 10.25 2.25002 10.25H1.42028L12 1.08075L15.8363 4.4055C15.9103 4.46975 16.015 4.4845 16.1038 4.444C16.1928 4.4035 16.25 4.3145 16.25 4.21675V2H18.75V6.81675C18.75 6.88925 18.7815 6.95825 18.8363 7.00575L19.75 7.7975V9.25H19.25V8.75C19.25 8.612 19.1383 8.5 19 8.5H12H5.00002C4.86177 8.5 4.75002 8.612 4.75002 8.75V9.5H4.00003C3.86177 9.5 3.75003 9.612 3.75003 9.75V20.75C3.75003 21.4393 4.31077 22 5.00002 22H19C19.6893 22 20.25 21.4393 20.25 20.75V10.5C20.25 10.362 20.1383 10.25 20 10.25C19.8618 10.25 19.75 10.362 19.75 10.5V20.75C19.75 21.1635 19.4135 21.5 19 21.5H12.25V21H19C19.1383 21 19.25 20.888 19.25 20.75V9.75H20C20.1383 9.75 20.25 9.638 20.25 9.5V7.68325C20.25 7.61075 20.2185 7.54175 20.1638 7.49425L19.25 6.7025V1.75C19.25 1.612 19.1383 1.5 19 1.5H16C15.8618 1.5 15.75 1.612 15.75 1.75V3.66925L12.1638 0.560999C12.0695 0.479749 11.9303 0.479749 11.836 0.560999L0.586025 10.311C0.507275 10.3792 0.479025 10.4895 0.515775 10.5872C0.552275 10.6852 0.645775 10.75 0.750025 10.75H2.00002V23.25C2.00002 23.388 2.11177 23.5 2.25002 23.5H21.75C21.8883 23.5 22 23.388 22 23.25V10.75H23.25C23.3543 10.75 23.4478 10.6852 23.4843 10.5875C23.5208 10.4895 23.4928 10.3795 23.4138 10.311ZM5.00002 21.5C4.58652 21.5 4.25003 21.1635 4.25003 20.75V10H5.00002C5.13827 10 5.25002 9.888 5.25002 9.75V9H11.75V20.5H5.25002V10.75C5.25002 10.612 5.13827 10.5 5.00002 10.5C4.86177 10.5 4.75002 10.612 4.75002 10.75V20.75C4.75002 20.888 4.86177 21 5.00002 21H11.75V21.5H5.00002ZM18.75 20.5H12.25V9H18.75V20.5Z" fill="#55967E"/>
<path d="M15.75 19.5C15.8881 19.5 16 19.3881 16 19.25C16 19.1119 15.8881 19 15.75 19C15.612 19 15.5 19.1119 15.5 19.25C15.5 19.3881 15.612 19.5 15.75 19.5Z" fill="#55967E"/>
<path d="M16.75 19.5C16.8881 19.5 17 19.3881 17 19.25C17 19.1119 16.8881 19 16.75 19C16.6119 19 16.5 19.1119 16.5 19.25C16.5 19.3881 16.6119 19.5 16.75 19.5Z" fill="#55967E"/>
<path d="M17.75 19.5C17.888 19.5 18 19.3881 18 19.25C18 19.1119 17.888 19 17.75 19C17.6119 19 17.5 19.1119 17.5 19.25C17.5 19.3881 17.6119 19.5 17.75 19.5Z" fill="#55967E"/>
</svg>
