

<svg width="24" height="28" viewBox="0 0 24 28" fill="none" xmlns="http://www.w3.org/2000/svg">
  <g clip-path="url(#clip0)">
    <path opacity="0.2" d="M12 25C18.6274 25 24 19.6274 24 13C24 6.37258 18.6274 1 12 1C5.37258 1 0 6.37258 0 13C0 19.6274 5.37258 25 12 25Z" fill="#E4E7EC"/>
    <path d="M18.4149 5.70528C18.4142 5.70493 18.4138 5.70422 18.413 5.70352C18.3777 5.69927 18.3428 5.69326 18.3083 5.68549L16.9302 6.92781L12 11.469L11.3126 11.2392L5.70631 9.36579L3.61023 11.1031L6.75415 10.8287L10.6083 15.8574L15.544 17.6555V20.4594L17.6738 18.3869L15.6118 14.4864L18.2487 12.1092L18.4149 5.70528Z" fill="#E4E7EC" stroke="#55967E" stroke-width="0.4" stroke-miterlimit="10"/>
    <path d="M11.3126 11.2396C11.5416 11.3163 11.7711 11.3927 12.0001 11.4694C14.1295 9.54651 16.2585 7.62363 18.3879 5.70075C18.3722 5.69828 18.3562 5.6958 18.3405 5.69297C18.1828 5.76969 17.9914 5.82555 17.7926 5.78772C17.6369 5.75802 17.6005 5.65939 17.4471 5.65974C17.2346 5.6601 17.166 5.82767 16.9773 5.80363C16.8365 5.7856 16.8409 5.68802 16.7005 5.67459C16.513 5.65656 16.4314 5.82343 16.2663 5.78808C16.1577 5.76474 16.1652 5.68661 16.0573 5.67035C15.9056 5.64737 15.8409 5.79409 15.6942 5.77252C15.5711 5.75414 15.5605 5.64313 15.4471 5.64136C15.3279 5.63994 15.2785 5.76191 15.1911 5.74105C15.1122 5.72232 15.126 5.61767 15.0401 5.59045C14.9385 5.55828 14.8511 5.68378 14.7746 5.64701C14.7189 5.62015 14.7079 5.52681 14.713 5.46176C14.7036 5.46035 14.6946 5.45893 14.6852 5.45752L11.3126 11.2396Z" stroke="#55967E" stroke-width="0.4" stroke-miterlimit="10"/>
    <path d="M5.70667 9.36621L9.18471 14L12 11.469L9.18471 14" stroke="#55967E" stroke-width="0.2" stroke-miterlimit="10"/>
    <path d="M18.2486 12.1093L9.18469 13.9999L10.6086 15.8578L13.0361 16.7423L15.6117 14.4864" stroke="#55967E" stroke-width="0.1" stroke-miterlimit="10"/>
    <path d="M11.3824 11.2534L15.0647 5.60034" stroke="#55967E" stroke-width="0.1" stroke-miterlimit="10"/>
    <path d="M16.1012 5.67427L11.6945 11.3393L11.5385 11.3004L15.4706 5.6474" stroke="#55967E" stroke-width="0.1" stroke-miterlimit="10"/>
    <path opacity="0.02" d="M11.8334 11.3785L16.7169 5.67529" stroke="#55967E" stroke-width="0.1" stroke-miterlimit="10"/>
    <path d="M11.92 11.4333L17.4891 5.67529" stroke="#55967E" stroke-width="0.1" stroke-miterlimit="10"/>
    <path d="M14.7738 5.64636L11.36 11.2425" stroke="#55967E" stroke-width="0.1" stroke-miterlimit="10"/>
    <path d="M15.1902 5.74036L11.46 11.2714" stroke="#55967E" stroke-width="0.1" stroke-miterlimit="10"/>
    <path d="M15.6142 5.74036L11.582 11.3393" stroke="#55967E" stroke-width="0.1" stroke-miterlimit="10"/>
    <path d="M15.8376 5.74036L11.6569 11.3167" stroke="#55967E" stroke-width="0.1" stroke-miterlimit="10"/>
    <path d="M16.266 5.78711L11.7444 11.402" stroke="#55967E" stroke-width="0.1" stroke-miterlimit="10"/>
    <path d="M16.8898 5.74493L11.9432 11.2664" stroke="#55967E" stroke-width="0.1" stroke-miterlimit="10"/>
    <path d="M11.7972 11.452L16.4263 5.80292" stroke="#55967E" stroke-width="0.1" stroke-miterlimit="10"/>
    <path d="M16.9773 5.80292L11.8557 11.4333" stroke="#55967E" stroke-width="0.1" stroke-miterlimit="10"/>
    <path d="M17.1773 5.75482L11.8958 11.469" stroke="#55967E" stroke-width="0.1" stroke-miterlimit="10"/>
    <path d="M17.6106 5.75482L12 11.469L17.7926 5.78699L17.982 5.79689L11.92 11.4333" stroke="#55967E" stroke-width="0.1" stroke-miterlimit="10"/>
  </g>
  <defs>
    <clipPath id="clip0">
      <path d="M0 0H24V28H0V0Z" fill="white"/>
    </clipPath>
  </defs>
</svg>
