 <svg width="55" height="63" viewBox="0 0 55 63" fill="none" xmlns="http://www.w3.org/2000/svg">
                    <g clip-path="url(#clip0)">
                    <path opacity="0.2" d="M54.2826 29.25C54.2826 43.8788 42.2498 55.75 27.3913 55.75C12.5328 55.75 0.5 43.8788 0.5 29.25C0.5 14.6212 12.5328 2.75 27.3913 2.75C42.2498 2.75 54.2826 14.6212 54.2826 29.25Z" fill="#E4E7EC" stroke="#55967E"/>
                    <path d="M42.0341 12.8369C42.0323 12.8361 42.0314 12.8345 42.0296 12.8329C41.949 12.8234 41.8694 12.8098 41.7906 12.7923L38.6451 15.5876L27.3914 25.8052L25.8222 25.2881L13.0252 21.073L8.24072 24.9819L15.4171 24.3646L24.2145 35.6792L35.4807 39.7248V46.0336L40.3423 41.3706L35.6356 32.5944L41.6545 27.2458L42.0341 12.8369Z" fill="#E4E7EC" stroke="#55967E" stroke-width="0.4" stroke-miterlimit="10"/>
                    <path d="M25.8223 25.2891C26.345 25.4617 26.8687 25.6335 27.3914 25.8061C32.2521 21.4796 37.1118 17.1532 41.9724 12.8267C41.9366 12.8211 41.8999 12.8156 41.8641 12.8092C41.5042 12.9818 41.0674 13.1075 40.6136 13.0224C40.2582 12.9556 40.175 12.7336 39.825 12.7344C39.3398 12.7352 39.1831 13.1123 38.7526 13.0582C38.4312 13.0176 38.4411 12.7981 38.1206 12.7678C37.6927 12.7273 37.5065 13.1027 37.1297 13.0232C36.8817 12.9707 36.8987 12.7949 36.6526 12.7583C36.3062 12.7066 36.1585 13.0367 35.8237 12.9882C35.5426 12.9468 35.5184 12.697 35.2597 12.6931C34.9876 12.6899 34.8748 12.9643 34.6752 12.9174C34.4953 12.8752 34.5266 12.6398 34.3306 12.5785C34.0987 12.5061 33.8991 12.7885 33.7246 12.7058C33.5975 12.6453 33.5724 12.4353 33.584 12.289C33.5625 12.2858 33.542 12.2826 33.5205 12.2794L25.8223 25.2891Z" stroke="#55967E" stroke-width="0.4" stroke-miterlimit="10"/>
                    <path d="M13.0261 21.074L20.9651 31.5L27.3914 25.8053L20.9651 31.5" stroke="#55967E" stroke-width="0.2" stroke-miterlimit="10"/>
                    <path d="M41.6544 27.2458L20.9651 31.4999L24.2153 35.68L29.7563 37.6702L35.6355 32.5944" stroke="#55967E" stroke-width="0.1" stroke-miterlimit="10"/>
                    <path d="M25.9815 25.3201L34.3868 12.6008" stroke="#55967E" stroke-width="0.1" stroke-miterlimit="10"/>
                    <path d="M36.7527 12.7671L26.694 25.5134L26.3378 25.4259L35.3133 12.7066" stroke="#55967E" stroke-width="0.1" stroke-miterlimit="10"/>
                    <path opacity="0.02" d="M27.011 25.6017L38.1582 12.7694" stroke="#55967E" stroke-width="0.1" stroke-miterlimit="10"/>
                    <path d="M27.2087 25.725L39.9206 12.7694" stroke="#55967E" stroke-width="0.1" stroke-miterlimit="10"/>
                    <path d="M33.7227 12.7043L25.9305 25.2955" stroke="#55967E" stroke-width="0.1" stroke-miterlimit="10"/>
                    <path d="M34.6733 12.9158L26.1588 25.3607" stroke="#55967E" stroke-width="0.1" stroke-miterlimit="10"/>
                    <path d="M35.6411 12.9158L26.4372 25.5134" stroke="#55967E" stroke-width="0.1" stroke-miterlimit="10"/>
                    <path d="M36.1512 12.9158L26.6081 25.4625" stroke="#55967E" stroke-width="0.1" stroke-miterlimit="10"/>
                    <path d="M37.1288 13.021L26.8078 25.6544" stroke="#55967E" stroke-width="0.1" stroke-miterlimit="10"/>
                    <path d="M38.5529 12.9261L27.2616 25.3495" stroke="#55967E" stroke-width="0.1" stroke-miterlimit="10"/>
                    <path d="M26.9285 25.7671L37.4948 13.0566" stroke="#55967E" stroke-width="0.1" stroke-miterlimit="10"/>
                    <path d="M38.7525 13.0566L27.062 25.725" stroke="#55967E" stroke-width="0.1" stroke-miterlimit="10"/>
                    <path d="M39.2091 12.9483L27.1533 25.8053" stroke="#55967E" stroke-width="0.1" stroke-miterlimit="10"/>
                    <path d="M40.1981 12.9483L27.3913 25.8053L40.6135 13.0207L41.0458 13.043L27.2087 25.7249" stroke="#55967E" stroke-width="0.1" stroke-miterlimit="10"/>
                    </g>
                    <defs>
                    <clipPath id="clip0">
                    <path d="M0 0H54.7826V63H0V0Z" fill="white"/>
                    </clipPath>
                    </defs>
                    </svg>