<?xml version="1.0" encoding="utf-8"?>
<!-- Generator: Adobe Illustrator 23.0.6, SVG Export Plug-In . SVG Version: 6.00 Build 0)  -->
<svg version="1.1" id="Layer_1" xmlns="http://www.w3.org/2000/svg" xmlns:xlink="http://www.w3.org/1999/xlink" x="0px" y="0px"
	 viewBox="0 0 612 792" style="enable-background:new 0 0 612 792;" xml:space="preserve">
<style type="text/css">
	.st0{fill:#FFFFFF;}
	.st1{fill:none;stroke:#000000;stroke-width:2;stroke-miterlimit:10;}
	.st2{fill:none;stroke:#000000;stroke-miterlimit:10;}
	.st3{opacity:0.2;}
</style>
<g>
	<g>
		<path class="st0" d="M77.41,362.26c3.22,0,3.22-5,0-5C74.2,357.26,74.19,362.26,77.41,362.26L77.41,362.26z"/>
	</g>
</g>
<path class="st1" d="M469.58,161.38c-0.02-0.01-0.03-0.03-0.05-0.05c-0.9-0.12-1.79-0.29-2.67-0.51l-35.14,35.14L306,324.41
	l-17.53-6.5l-142.96-52.99l-53.45,49.14l80.17-7.76l98.28,142.24l125.86,50.86v79.31l54.31-58.62L398.1,409.76l67.24-67.24
	L469.58,161.38z"/>
<path class="st1" d="M288.47,317.92c5.84,2.17,11.69,4.33,17.53,6.5c54.3-54.39,108.59-108.78,162.89-163.17
	c-0.4-0.07-0.81-0.14-1.21-0.22c-4.02,2.17-8.9,3.75-13.97,2.68c-3.97-0.84-4.9-3.63-8.81-3.62c-5.42,0.01-7.17,4.75-11.98,4.07
	c-3.59-0.51-3.48-3.27-7.06-3.65c-4.78-0.51-6.86,4.21-11.07,3.21c-2.77-0.66-2.58-2.87-5.33-3.33c-3.87-0.65-5.52,3.5-9.26,2.89
	c-3.14-0.52-3.41-3.66-6.3-3.71c-3.04-0.04-4.3,3.41-6.53,2.82c-2.01-0.53-1.66-3.49-3.85-4.26c-2.59-0.91-4.82,2.64-6.77,1.6
	c-1.42-0.76-1.7-3.4-1.57-5.24c-0.24-0.04-0.47-0.08-0.71-0.12L288.47,317.92"/>
<polyline class="st2" points="145.52,264.93 234.21,396 306,324.41 306,324.41 234.21,396 "/>
<polyline class="st2" points="465.34,342.52 234.21,396 270.52,448.55 332.42,473.57 398.1,409.76 "/>
<line class="st2" x1="290.25" y1="318.31" x2="384.15" y2="158.41"/>
<polyline class="st2" points="410.58,160.5 298.21,320.74 294.23,319.64 394.5,159.74 "/>
<line class="st2" x1="301.75" y1="321.85" x2="426.28" y2="160.53"/>
<line class="st2" x1="303.96" y1="323.4" x2="445.97" y2="160.53"/>
<line class="st2" x1="376.73" y1="159.71" x2="289.68" y2="318"/>
<line class="st2" x1="387.35" y1="162.37" x2="292.23" y2="318.82"/>
<line class="st2" x1="398.16" y1="162.37" x2="295.34" y2="320.74"/>
<line class="st2" x1="403.86" y1="162.37" x2="297.25" y2="320.1"/>
<line class="st2" x1="414.78" y1="163.69" x2="299.48" y2="322.51"/>
<line class="st2" x1="430.69" y1="162.5" x2="304.55" y2="318.68"/>
<line class="st2" x1="300.83" y1="323.93" x2="418.87" y2="164.14"/>
<path class="st2" d="M300.83,323.93"/>
<path class="st2" d="M296.55,329.75"/>
<path class="st2" d="M291.79,336.23"/>
<line class="st2" x1="432.92" y1="164.14" x2="302.32" y2="323.4"/>
<line class="st2" x1="438.02" y1="162.78" x2="303.34" y2="324.41"/>
<path class="st2" d="M449.07,162.78L306,324.41l147.71-160.72l4.83,0.28L303.96,323.4"/>
<circle class="st3" cx="311.87" cy="326.88" r="285.51"/>
</svg>
